<svg width="500" height="500" xmlns="http://www.w3.org/2000/svg">

 <g>
  <title>background</title>
  <rect fill="none" id="canvas_background" height="402" width="582" y="-1" x="-1"/>
 </g>
 <g>
  <title>Layer 1</title>
  <path id="svg_1" fill-rule="evenodd" fill="#252422" d="m31.949,325.218c0,12.535 10.177,22.715 22.713,22.715c12.537,0 22.713,-10.18 22.713,-22.715l0,-20.896c0,-11.081 8.905,-19.987 19.991,-19.987l7.993,0c-0.457,4.176 -0.728,8.531 -0.728,12.986c0,17.718 3.362,34.622 9.449,50.157l-27.62,29.716c-5.181,5.536 -9.086,17.797 -9.086,25.248l0,40.887c0,12.537 10.177,22.712 22.714,22.712c12.538,0 22.713,-10.175 22.713,-22.712l0,-27.808c0,-4.082 1.181,-7.807 3.271,-10.981l13.903,-14.817c17.444,19.712 37.341,39.803 66.779,47.787c0.634,0.283 1.362,0.459 2.09,0.639c1.543,0.459 3.181,0.638 4.813,0.638c9.996,0 18.172,-8.181 18.172,-18.172l0,-154.454c0,-9.996 8.175,-18.172 18.17,-18.172c9.991,0 18.172,8.176 18.172,18.172l0,154.452c0,9.991 8.181,18.172 18.169,18.172c1.91,0 3.817,-0.268 5.636,-0.905l2.27,-0.639c28.172,-7.81 48.518,-27.983 65.772,-47.52l13.913,14.817c2.086,3.175 3.267,6.899 3.267,10.981l0,27.808c0,12.537 10.175,22.712 22.711,22.712c12.54,0 22.715,-10.175 22.715,-22.712l0,-40.887c0,-7.451 -3.904,-19.712 -9.086,-25.248l-27.621,-29.716c6.087,-15.535 9.449,-32.439 9.449,-50.157c0,-4.455 -0.264,-8.811 -0.727,-12.986l7.994,0c11.084,0 19.99,8.906 19.99,19.987l0,20.896c0,12.535 10.175,22.715 22.716,22.715c12.536,0 22.711,-10.18 22.711,-22.715l0,-40.884c0,-25.077 -20.354,-45.429 -45.427,-45.429l-42.793,0c-4.089,-7.631 -8.719,-14.992 -13.442,-22.351l38.064,-41.249c5.182,-5.54 9.086,-18.535 9.086,-27.256l0,-40.886c0,-12.536 -10.175,-22.713 -22.711,-22.713c-12.541,0 -22.715,10.177 -22.715,22.713l0,29.98c0,4.091 -1.181,7.818 -3.267,10.993l-24.443,26.169c-10.175,-19.807 -17.718,-42.427 -17.718,-71.684c0,-33.889 -23.165,-62.327 -54.513,-70.413l0,43.157c0,9.994 -8.181,18.17 -18.172,18.17c-9.996,0 -18.17,-8.176 -18.17,-18.17l0,-43.153c-31.347,8.086 -54.513,36.524 -54.513,70.413c0,29.163 -7.636,51.695 -17.807,71.502l-24.351,-25.988c-2.09,-3.175 -3.271,-6.902 -3.271,-10.993l0,-29.98c0,-12.536 -10.177,-22.713 -22.713,-22.713s-22.714,10.177 -22.714,22.713l0,40.886c0,8.721 3.903,21.716 9.087,27.256l37.884,41.067c-4.812,7.359 -9.355,14.808 -13.446,22.532l-42.61,0c-25.072,0 -45.426,20.352 -45.426,45.429l0,40.884z" clip-rule="evenodd"/>
 </g>
</svg>